# xmcd CD database file
#
# Track frame offsets:
#	150
#	15798
#	30127
#	56168
#	80311
#	105774
#	139305
#	156089
#	180247
#	204613
#	226924
#
# Disc length: 3357 seconds
#
# Revision: 0
# Processed by: cddbd v1.5.2PL0 Copyright (c) Steve Scherf et al.
# Submitted via: CDex 1.51
#
DISCID=710d1b0b
DTITLE=Various Artist - The Jazz Trumpet Vol. 2
DYEAR=2001
DGENRE=Jazz
TTITLE0=Roy's Got Rhythm (Roy Eldridge)
TTITLE1=Jonah's Wail (Jonah Jones)
TTITLE2=I Never Knew (Charlie Shavers)
TTITLE3=Broadway (Harry Edison)
TTITLE4=Jive at Five (Joe Newman)
TTITLE5=Salt Peanuts (Dizzy Gillespie)
TTITLE6=Anthropology (Fats Navarro)
TTITLE7='Round Midnight (Miles Davis)
TTITLE8=My Old Flame (Kenny Dorham)
TTITLE9=It Might As Well Be Spring (Clifford Brown)
TTITLE10=One More (Thad Jones)
EXTD=YEAR: 2001
EXTT0=
EXTT1=
EXTT2=
EXTT3=
EXTT4=
EXTT5=
EXTT6=
EXTT7=
EXTT8=
EXTT9=
EXTT10=
PLAYORDER=
